<?xml version="1.0" encoding="UTF-8" standalone="no"?>
<svg
   viewBox="0 0 64 64"
   version="1.1"
   id="svg4"
   sodipodi:docname="face-palm.svg"
   inkscape:version="1.3 (0e150ed6c4, 2023-07-21)"
   xmlns:inkscape="http://www.inkscape.org/namespaces/inkscape"
   xmlns:sodipodi="http://sodipodi.sourceforge.net/DTD/sodipodi-0.dtd"
   xmlns="http://www.w3.org/2000/svg"
   xmlns:svg="http://www.w3.org/2000/svg">
  <defs
     id="defs4" />
  <sodipodi:namedview
     id="namedview4"
     pagecolor="#ffffff"
     bordercolor="#000000"
     borderopacity="0.25"
     inkscape:showpageshadow="2"
     inkscape:pageopacity="0.0"
     inkscape:pagecheckerboard="0"
     inkscape:deskcolor="#d1d1d1"
     inkscape:zoom="8.905126"
     inkscape:cx="31.835597"
     inkscape:cy="40.257712"
     inkscape:window-width="1920"
     inkscape:window-height="1009"
     inkscape:window-x="-8"
     inkscape:window-y="-8"
     inkscape:window-maximized="1"
     inkscape:current-layer="svg4"
     showgrid="true">
    <inkscape:grid
       id="grid1"
       units="px"
       originx="0"
       originy="0"
       spacingx="1"
       spacingy="1"
       empcolor="#0099e5"
       empopacity="0.30196078"
       color="#0099e5"
       opacity="0.14901961"
       empspacing="5"
       dotted="false"
       gridanglex="30"
       gridanglez="30"
       visible="true" />
  </sodipodi:namedview>
  <circle
     cx="32"
     cy="32"
     fill="#ffdd67"
     r="29.53846"
     id="circle1"
     style="fill:none;fill-opacity:1;stroke:#000000;stroke-width:4.92308;stroke-dasharray:none" />
  <path
     d="m28.153 13.324s1.06-2.121-1.68-3.624c-2.828-1.59-6.099 6.099-9.9 7.778 0 0 1.503-2.916-1.06-4.065-2.386-.973-9.016 4.419-10.341 14.937-1.326 10.518 13.081 17.324 21.743 11.314 6.01-4.243 13.7-12.11 12.463-15.291-.972-2.564-4.066-.707-4.066-.707s3.094-3.094.707-5.48c-1.414-1.415-2.563-.266-2.563-.266s2.21-2.917-.177-5.303c-1.944-2.121-5.126.707-5.126.707"
     fill="#fff"
     id="path3" />
  <path
     style="fill:none;stroke:#000000;stroke-width:5;stroke-linecap:round;stroke-linejoin:round;stroke-dasharray:none"
     d="m 20,47 c 0,0 15,0 24,3"
     id="path2"
     sodipodi:nodetypes="cc" />
  <path
     style="fill:none;stroke:#000000;stroke-width:3;stroke-linecap:round;stroke-linejoin:round;stroke-dasharray:none"
     d="m 10,30 c 0,4 6.272961,7.663115 12,8 4,1 17.122949,-11.866397 16,-14 -1,-2 -10,4 -10,4 0,0 9.572128,-8.427872 8,-10 -1.684423,-2.021308 -12,6 -12,6 0,0 10.909013,-8.978692 9,-11 -1.909013,-2.245897 -13,10 -13,10 0,0 8.572128,-11.764756 7,-13 -2.358192,-2.4704872 -12,13 -12,13 0,0 4,-8 0,-8 -5,0 -5,12 -5,15 z"
     id="path5"
     sodipodi:nodetypes="cccccccccccc" />
  <path
     style="fill:none;stroke:#000000;stroke-width:3;stroke-linecap:round;stroke-linejoin:round;stroke-dasharray:none"
     d="M 41.637686,22.949395 C 44.110687,22.59734 50,25 51,29"
     id="path7"
     sodipodi:nodetypes="cc" />
</svg>
