<?xml version="1.0" encoding="UTF-8" standalone="no"?>
<!-- Created with Inkscape (http://www.inkscape.org/) -->

<svg
   width="256"
   height="256"
   viewBox="0 0 67.733332 67.733335"
   version="1.1"
   id="svg5"
   inkscape:version="1.1.2 (b8e25be833, 2022-02-05)"
   sodipodi:docname="icon.svg"
   inkscape:export-filename="C:\Users\pasto\Nextcloud\Documents\LiClipse Workspace\Sermon Prep Database\src\resources\icon.png"
   inkscape:export-xdpi="96"
   inkscape:export-ydpi="96"
   xmlns:inkscape="http://www.inkscape.org/namespaces/inkscape"
   xmlns:sodipodi="http://sodipodi.sourceforge.net/DTD/sodipodi-0.dtd"
   xmlns="http://www.w3.org/2000/svg"
   xmlns:svg="http://www.w3.org/2000/svg">
  <sodipodi:namedview
     id="namedview7"
     pagecolor="#ffffff"
     bordercolor="#666666"
     borderopacity="1.0"
     inkscape:pageshadow="2"
     inkscape:pageopacity="0.0"
     inkscape:pagecheckerboard="0"
     inkscape:document-units="mm"
     showgrid="true"
     units="px"
     inkscape:zoom="2.0737236"
     inkscape:cx="-16.154516"
     inkscape:cy="145.14953"
     inkscape:window-width="1920"
     inkscape:window-height="1009"
     inkscape:window-x="-8"
     inkscape:window-y="-8"
     inkscape:window-maximized="1"
     inkscape:current-layer="layer1">
    <inkscape:grid
       type="xygrid"
       id="grid824" />
  </sodipodi:namedview>
  <defs
     id="defs2">
    <clipPath
       clipPathUnits="userSpaceOnUse"
       id="clipPath1993">
      <path
         style="fill:none;stroke:#000000;stroke-width:0.264583px;stroke-linecap:butt;stroke-linejoin:miter;stroke-opacity:1"
         d="M 25.135416,17.197916 -17.197917,27.78125 -59.53125,17.197916 V 2.6458333 h 84.666667 z"
         id="path1995"
         sodipodi:nodetypes="cccccc" />
    </clipPath>
  </defs>
  <g
     inkscape:label="Layer 1"
     inkscape:groupmode="layer"
     id="layer1">
    <rect
       style="opacity:1;fill:#ffffff;stroke:none;stroke-width:0.79375;stroke-linecap:round;stroke-miterlimit:4;stroke-dasharray:none"
       id="rect4801"
       width="62.176998"
       height="60.854164"
       x="2.6458333"
       y="2.6458333"
       rx="5"
       ry="5" />
    <path
       style="fill:#d7d7f4;stroke:none;stroke-width:3.96875;stroke-linecap:round;stroke-linejoin:miter;stroke-miterlimit:4;stroke-dasharray:none;stroke-opacity:1"
       d="m 7.986511,55.933259 v -31.26697 c 1e-7,-0.75536 1.0349467,-1.790306 2.061803,-1.431732 l 21.741968,3.781212 c 1.404086,-1.420099 2.78264,-1.339269 4.139786,0 l 21.83914,-2.87317 c 0.942668,-0.269676 1.977615,0.765271 1.977614,1.826705 v 29.996529 c 10e-7,1.025381 -1.034946,2.060328 -2.008544,2.608112 l -21.470419,3.41994 c -1.136608,-0.679679 -2.063545,-1.945034 -4.139787,0 L 9.6603997,58.500832 C 9.0214577,58.064167 7.9865111,57.02922 7.986511,55.933259 Z"
       id="path859"
       sodipodi:nodetypes="ccccccccccccc" />
    <g
       id="g1247"
       style="stroke:#000080;stroke-width:4.29999;stroke-miterlimit:4;stroke-dasharray:none"
       transform="matrix(0.92296763,0,0,0.92296763,2.6088294,5.5260065)">
      <path
         style="fill:none;stroke:#000080;stroke-width:4.29999;stroke-linecap:round;stroke-linejoin:miter;stroke-miterlimit:4;stroke-dasharray:none;stroke-opacity:1"
         d="M 33.866667,56.885416 V 27.78125"
         id="path2609" />
      <path
         style="fill:none;stroke:#000080;stroke-width:4.29999;stroke-linecap:round;stroke-linejoin:miter;stroke-miterlimit:4;stroke-dasharray:none;stroke-opacity:1"
         d="M 25.135417,35.71875 H 42.333334"
         id="path2611" />
    </g>
    <path
       id="ellipse1315"
       style="fill:none;stroke:#000080;stroke-width:4.29999;stroke-linecap:round;stroke-miterlimit:4;stroke-dasharray:none"
       d="m -11.90625,27.78125 a 5.291667,5.2916656 0 0 1 -5.291667,5.291666 5.291667,5.2916656 0 0 1 -5.291667,-5.291666 5.291667,5.2916656 0 0 1 5.291667,-5.291665 5.291667,5.2916656 0 0 1 5.291667,5.291665 z m 7.9375003,0 A 13.229167,13.229165 0 0 1 -17.197917,41.010415 13.229167,13.229165 0 0 1 -30.427084,27.78125 13.229167,13.229165 0 0 1 -17.197917,14.552085 13.229167,13.229165 0 0 1 -3.9687497,27.78125 Z m 7.937499,0 A 21.166666,21.166666 0 0 1 -17.197917,48.947916 21.166666,21.166666 0 0 1 -38.364583,27.78125 21.166666,21.166666 0 0 1 -17.197917,6.6145837 21.166666,21.166666 0 0 1 3.9687493,27.78125 Z"
       clip-path="url(#clipPath1993)"
       transform="matrix(0.92296763,0,0,0.92296763,49.739787,0.03127686)" />
  </g>
</svg>
